REM DIRINDEX 1\2\6,1\2\7,1\2\8,1\3\9,1\3\10,1\3\11,1\4\12,1\4\13,1\4\14,1\5\15,1\5\16,1\5\17,1\5\18
REM DIRNAME folder01,folder02,folder03,folder04,folder05,folder06,folder07,folder08,folder09,folder10,folder11,folder12,folder13,folder14,folder15,folder16,folder17,folder18
TITLE ""
FILE "" MP3
  TRACK 01 AUDIO
    TITLE "15:cjc019_5641"
    INDEX 01 00:00:00
  TRACK 02 AUDIO
    TITLE "0:"
    INDEX 01 00:06:63
  TRACK 03 AUDIO
    TITLE "16:cjc019_5642"
    INDEX 01 00:07:72
  TRACK 04 AUDIO
    TITLE "0:"
    INDEX 01 00:09:22
  TRACK 05 AUDIO
    TITLE "18:cjc019_5643"
    INDEX 01 00:10:06
  TRACK 06 AUDIO
    TITLE "0:"
    INDEX 01 00:11:58
  TRACK 07 AUDIO
    TITLE "17:cjc019_5644"
    INDEX 01 00:12:36
  TRACK 08 AUDIO
    TITLE "0:"
    INDEX 01 00:13:67
  TRACK 09 AUDIO
    TITLE "16:cjc019_5645"
    INDEX 01 00:15:46
  TRACK 10 AUDIO
    TITLE "0:"
    INDEX 01 00:16:40
  TRACK 11 AUDIO
    TITLE "18:cjc019_5646"
    INDEX 01 00:17:33
  TRACK 12 AUDIO
    TITLE "0:"
    INDEX 01 00:20:39
  TRACK 13 AUDIO
    TITLE "17:cjc019_5647"
    INDEX 01 00:21:19
  TRACK 14 AUDIO
    TITLE "0:"
    INDEX 01 00:22:15
  TRACK 15 AUDIO
    TITLE "16:cjc019_5648"
    INDEX 01 00:23:73
  TRACK 16 AUDIO
    TITLE "0:"
    INDEX 01 00:25:19
  TRACK 17 AUDIO
    TITLE "18:cjc019_5649"
    INDEX 01 00:25:72
  TRACK 18 AUDIO
    TITLE "0:"
    INDEX 01 00:28:70
  TRACK 19 AUDIO
    TITLE "17:cjc019_5650"
    INDEX 01 00:29:46
  TRACK 20 AUDIO
    TITLE "0:"
    INDEX 01 00:30:61
  TRACK 21 AUDIO
    TITLE "16:cjc019_5651"
    INDEX 01 00:32:48
  TRACK 22 AUDIO
    TITLE "0:"
    INDEX 01 00:34:06
  TRACK 23 AUDIO
    TITLE "18:cjc019_5652"
    INDEX 01 00:34:63
  TRACK 24 AUDIO
    TITLE "0:"
    INDEX 01 00:36:13
  TRACK 25 AUDIO
    TITLE "17:cjc019_5653"
    INDEX 01 00:36:66
  TRACK 26 AUDIO
    TITLE "0:"
    INDEX 01 00:38:30
  TRACK 27 AUDIO
    TITLE "16:cjc019_5654"
    INDEX 01 00:40:11
  TRACK 28 AUDIO
    TITLE "0:"
    INDEX 01 00:41:30
  TRACK 29 AUDIO
    TITLE "18:cjc019_5655"
    INDEX 01 00:42:12
  TRACK 30 AUDIO
    TITLE "0:"
    INDEX 01 00:45:04
  TRACK 31 AUDIO
    TITLE "17:cjc019_5656"
    INDEX 01 00:45:55
  TRACK 32 AUDIO
    TITLE "0:"
    INDEX 01 00:46:72
  TRACK 33 AUDIO
    TITLE "16:cjc019_5657"
    INDEX 01 00:48:51
  TRACK 34 AUDIO
    TITLE "0:"
    INDEX 01 00:49:67
  TRACK 35 AUDIO
    TITLE "18:cjc019_5658"
    INDEX 01 00:50:48
  TRACK 36 AUDIO
    TITLE "0:"
    INDEX 01 00:53:64
  TRACK 37 AUDIO
    TITLE "17:cjc019_5659"
    INDEX 01 00:54:38
  TRACK 38 AUDIO
    TITLE "0:"
    INDEX 01 00:55:51
  TRACK 39 AUDIO
    TITLE "16:cjc019_5660"
    INDEX 01 00:57:29
  TRACK 40 AUDIO
    TITLE "0:"
    INDEX 01 00:58:60
  TRACK 41 AUDIO
    TITLE "18:cjc019_5661"
    INDEX 01 00:59:41
  TRACK 42 AUDIO
    TITLE "0:"
    INDEX 01 01:03:06
  TRACK 43 AUDIO
    TITLE "17:cjc019_5662"
    INDEX 01 01:03:57
  TRACK 44 AUDIO
    TITLE "0:"
    INDEX 01 01:05:09
  TRACK 45 AUDIO
    TITLE "16:cjc019_5663"
    INDEX 01 01:06:59
  TRACK 46 AUDIO
    TITLE "0:"
    INDEX 01 01:08:07
  TRACK 47 AUDIO
    TITLE "18:cjc019_5664"
    INDEX 01 01:08:56
  TRACK 48 AUDIO
    TITLE "0:"
    INDEX 01 01:11:43
  TRACK 49 AUDIO
    TITLE "17:cjc019_5665"
    INDEX 01 01:12:21
  TRACK 50 AUDIO
    TITLE "0:"
    INDEX 01 01:13:44
  TRACK 51 AUDIO
    TITLE "16:cjc019_5666"
    INDEX 01 01:15:23
  TRACK 52 AUDIO
    TITLE "0:"
    INDEX 01 01:16:52
  TRACK 53 AUDIO
    TITLE "18:cjc019_5667"
    INDEX 01 01:17:35
  TRACK 54 AUDIO
    TITLE "0:"
    INDEX 01 01:21:00
  TRACK 55 AUDIO
    TITLE "17:cjc019_5668"
    INDEX 01 01:21:59
  TRACK 56 AUDIO
    TITLE "0:"
    INDEX 01 01:23:13
  TRACK 57 AUDIO
    TITLE "16:cjc019_5669"
    INDEX 01 01:24:67
  TRACK 58 AUDIO
    TITLE "0:"
    INDEX 01 01:26:15
  TRACK 59 AUDIO
    TITLE "18:cjc019_5670"
    INDEX 01 01:26:72
  TRACK 60 AUDIO
    TITLE "0:"
    INDEX 01 01:30:28
  TRACK 61 AUDIO
    TITLE "17:cjc019_5671"
    INDEX 01 01:31:04
  TRACK 62 AUDIO
    TITLE "0:"
    INDEX 01 01:32:31
  TRACK 63 AUDIO
    TITLE "16:cjc019_5672"
    INDEX 01 01:34:14
  TRACK 64 AUDIO
    TITLE "0:"
    INDEX 01 01:35:16
  TRACK 65 AUDIO
    TITLE "18:cjc019_5673"
    INDEX 01 01:36:03
  TRACK 66 AUDIO
    TITLE "0:"
    INDEX 01 01:38:43
  TRACK 67 AUDIO
    TITLE "17:cjc019_5674"
    INDEX 01 01:39:25
  TRACK 68 AUDIO
    TITLE "0:"
    INDEX 01 01:40:31
  TRACK 69 AUDIO
    TITLE "16:cjc019_5675"
    INDEX 01 01:42:16
  TRACK 70 AUDIO
    TITLE "0:"
    INDEX 01 01:43:49
  TRACK 71 AUDIO
    TITLE "18:cjc019_5676"
    INDEX 01 01:44:30
  TRACK 72 AUDIO
    TITLE "0:"
    INDEX 01 01:47:72
  TRACK 73 AUDIO
    TITLE "17:cjc019_5677"
    INDEX 01 01:48:52
  TRACK 74 AUDIO
    TITLE "0:"
    INDEX 01 01:50:13
  TRACK 75 AUDIO
    TITLE "16:cjc019_5678"
    INDEX 01 01:51:72
  TRACK 76 AUDIO
    TITLE "0:"
    INDEX 01 01:53:20
  TRACK 77 AUDIO
    TITLE "18:cjc019_5679"
    INDEX 01 01:53:69
  TRACK 78 AUDIO
    TITLE "0:"
    INDEX 01 01:56:43
  TRACK 79 AUDIO
    TITLE "17:cjc019_5680"
    INDEX 01 01:57:23
  TRACK 80 AUDIO
    TITLE "0:"
    INDEX 01 01:58:52
  TRACK 81 AUDIO
    TITLE "16:cjc019_5681"
    INDEX 01 02:00:37
  TRACK 82 AUDIO
    TITLE "0:"
    INDEX 01 02:01:39
  TRACK 83 AUDIO
    TITLE "18:cjc019_5682"
    INDEX 01 02:02:22
  TRACK 84 AUDIO
    TITLE "0:"
    INDEX 01 02:04:55
  TRACK 85 AUDIO
    TITLE "17:cjc019_5683"
    INDEX 01 02:05:31
  TRACK 86 AUDIO
    TITLE "0:"
    INDEX 01 02:06:36
  TRACK 87 AUDIO
    TITLE "16:cjc019_5684"
    INDEX 01 02:08:23
  TRACK 88 AUDIO
    TITLE "0:"
    INDEX 01 02:09:34
  TRACK 89 AUDIO
    TITLE "18:cjc019_5685"
    INDEX 01 02:10:24
  TRACK 90 AUDIO
    TITLE "0:"
    INDEX 01 02:11:70
  TRACK 91 AUDIO
    TITLE "17:cjc019_5686"
    INDEX 01 02:12:54
  TRACK 92 AUDIO
    TITLE "0:"
    INDEX 01 02:13:67
  TRACK 93 AUDIO
    TITLE "16:cjc019_5687"
    INDEX 01 02:15:52
  TRACK 94 AUDIO
    TITLE "0:"
    INDEX 01 02:17:00
  TRACK 95 AUDIO
    TITLE "18:cjc019_5688"
    INDEX 01 02:17:51
  TRACK 96 AUDIO
    TITLE "0:"
    INDEX 01 02:19:25
  TRACK 97 AUDIO
    TITLE "17:cjc019_5689"
    INDEX 01 02:20:05
  TRACK 98 AUDIO
    TITLE "0:"
    INDEX 01 02:21:22
  TRACK 99 AUDIO
    TITLE "16:cjc019_5690"
    INDEX 01 02:23:03
  TRACK 100 AUDIO
    TITLE "0:"
    INDEX 01 02:24:06
  TRACK 101 AUDIO
    TITLE "18:cjc019_5691"
    INDEX 01 02:24:59
  TRACK 102 AUDIO
    TITLE "0:"
    INDEX 01 02:29:70
  TRACK 103 AUDIO
    TITLE "17:cjc019_5692"
    INDEX 01 02:30:50
  TRACK 104 AUDIO
    TITLE "0:"
    INDEX 01 02:31:53
